<svg xmlns="http://www.w3.org/2000/svg" width="207" height="23" viewBox="0 0 207 23">
    <path fill="#888" fill-rule="evenodd" d="M206.848 19.203c-3.173-7.758-9.386-13.225-17.616-14.824-11.124-2.162-16.048 4.291-24.558 9.856-12.616 8.252-19.276-11.291-31.548-11.362-5.616-.033-10.626 3.481-15.01 6.589-2.633 1.863-5.092 4.015-8.002 5.452-9.864 4.869-13.18.34-18.99-6.686C85.863 1.864 78.49-1.332 70.257.524c-10.66 2.403-18.163 22.659-28.963 17.067C33.755 13.686 30.618 3.65 21.64 1.858 12.007-.062 4.945 8.836.202 16.004c-.838 1.267 1.142 2.865 2.106 1.656C7.101 11.657 13.057 3.955 21.52 6.062c5.38 1.34 8.358 5.898 11.992 9.774 3.713 3.957 8.036 7.862 13.82 7.058 8.126-1.128 11.046-10.203 16.684-14.89C72.32 1.1 82.193 3.488 88.815 11.43c2.626 3.149 4.17 6.563 8.093 8.395 7.188 3.355 14.684-1.005 20.555-5.124 7.594-5.323 14.723-10.975 23.756-4.57 3.392 2.404 5.953 5.93 9.523 8.105 6.528 3.976 12.335 1.949 18.088-2.447 4.714-3.597 8.732-7.762 15.035-8.002 8.364-.318 16.122 4.538 19.35 12.435.92 2.247 4.567 1.263 3.633-1.02" opacity=".317"/>
</svg>
